<svg xmlns="http://www.w3.org/2000/svg" xmlns:xlink="http://www.w3.org/1999/xlink" width="825.495" height="1113.69" viewBox="0 0 825.495 1113.69"><defs><filter id="a" x="202.987" y="0" width="622.508" height="1113.69" filterUnits="userSpaceOnUse"><feOffset dx="5" dy="3" input="SourceAlpha"/><feGaussianBlur stdDeviation="5" result="b"/><feFlood flood-opacity="0.161"/><feComposite operator="in" in2="b"/><feComposite in="SourceGraphic"/></filter></defs><g transform="translate(1.372 12)"><g transform="matrix(1, 0, 0, 1, -1.37, -12)" filter="url(#a)"><path d="M61.749-109.165V121.821L240,450.559,61.749,741.689V974.525H654.258V-109.165Z" transform="translate(151.24 121.17)" fill="#f2f2f2"/></g><g transform="translate(158.44 163.338) rotate(14)"><path d="M211.551,1692.214l257.03,278.429" transform="translate(-148.812 -1641.754)" fill="none" stroke="#000" stroke-width="3"/><path d="M211.551,1692.214l243.444,280.738" transform="translate(-166.799 -1550.404)" fill="none" stroke="#000" stroke-width="3"/><path d="M211.551,1692.214l233.173,272.315" transform="translate(-183.47 -1459.864)" fill="none" stroke="#000" stroke-width="3"/><path d="M211.551,1692.214l222.005,263.9" transform="translate(-198.561 -1376.391)" fill="none" stroke="#000" stroke-width="3"/><path d="M211.551,1692.214l209.537,270.21" transform="translate(-211.551 -1307.503)" fill="none" stroke="#000" stroke-width="3"/><path d="M211.551,1692.214l263.215,261.508" transform="translate(-60.248 -1653.259)" fill="none" stroke="#000" stroke-width="3"/><path d="M321.782,1692.214,211.551,2018.247" transform="translate(-2.014 -1363.325)" fill="none" stroke="#000" stroke-width="3"/><path d="M308.294,1692.215l-96.744,328.318" transform="translate(-60.248 -1440.81)" fill="none" stroke="#000" stroke-width="3"/><path d="M294.082,1692.214,211.551,2025.92" transform="translate(-113.933 -1513.806)" fill="none" stroke="#000" stroke-width="3"/><path d="M284.7,1692.214l-73.154,331" transform="translate(-162.696 -1577.281)" fill="none" stroke="#000" stroke-width="3"/><path d="M274.289,1692.214l-62.739,335.139" transform="translate(-211.551 -1641.754)" fill="none" stroke="#000" stroke-width="3"/><path d="M331.125,1692.214,211.551,2011.4" transform="translate(83.394 -1391.75)" fill="none" stroke="#000" stroke-width="3"/><path d="M338.855,1693.974,211.551,1993.9" transform="translate(238.059 -1439.161)" fill="none" stroke="#000" stroke-width="3"/><path d="M329.36,1692.214,211.551,2001.9" transform="translate(166.187 -1414.873)" fill="none" stroke="#000" stroke-width="3"/><path d="M349.656,1691.792l-138.1,297.651" transform="translate(306.008 -1459.887)" fill="none" stroke="#000" stroke-width="3"/><path d="M211.551,1692.214l254.257,238.05" transform="translate(111.107 -1675.452)" fill="none" stroke="#000" stroke-width="3"/><path d="M211.551,1692.214l256.792,252.374" transform="translate(27.204 -1664.653)" fill="none" stroke="#000" stroke-width="3"/><path d="M0,0,254.7,233.1" transform="matrix(1, -0.017, 0.017, 1, 397.442, 4.445)" fill="none" stroke="#000" stroke-width="3"/><path d="M211.551,1788.754l336.405-96.539" transform="translate(108.217 -1459.865)" fill="none" stroke="#000" stroke-width="3"/><path d="M211.551,1772.656l338.819-80.441" transform="translate(36.496 -1521.252)" fill="none" stroke="#000" stroke-width="3"/><path d="M211.551,1755.689l342.983-63.474" transform="translate(-31.401 -1577.281)" fill="none" stroke="#000" stroke-width="3"/><path d="M211.551,1751.864l332.989-59.65" transform="translate(-89.542 -1636.931)" fill="none" stroke="#000" stroke-width="3"/><path d="M211.551,1803.746l335.026-111.531" transform="translate(76.645 -1381.198)" fill="none" stroke="#000" stroke-width="3"/><path d="M211.551,1797.31l212.131-69.79,107.313-35.305" transform="translate(46.8 -1292.645)" fill="none" stroke="#000" stroke-width="3"/><path d="M211.551,1803.963l206.664-74.208,104.548-37.54" transform="translate(23.445 -1224.24)" fill="none" stroke="#000" stroke-width="3"/><path d="M211.551,1738.014l335.6-45.8" transform="translate(-148.812 -1687.553)" fill="none" stroke="#000" stroke-width="3"/><path d="M211.551,1818.126l308.654-125.912" transform="translate(-2.014 -1163.204)" fill="none" stroke="#000" stroke-width="3"/></g></g></svg>