<svg xmlns="http://www.w3.org/2000/svg" width="698" height="149.72" viewBox="0 0 698 149.72"><g transform="translate(-164 -691.28)"><g transform="translate(165 801)"><text transform="translate(348 33)" font-size="33" font-family="Lato-Bold, Lato" font-weight="700" letter-spacing="0.2em"><tspan x="-348.167" y="0">PERSPECTIVES AND PROTOTYPES</tspan></text></g><g transform="translate(261.794 691.28)"><path d="M28.6-57a36.108,36.108,0,0,0-5.118-1.929,18.411,18.411,0,0,0-5.04-.669,5.225,5.225,0,0,0-3.032.748,2.408,2.408,0,0,0-1.063,2.087q0,.945,1.3,1.811a20.115,20.115,0,0,0,4.213,1.89,33.317,33.317,0,0,1,8.9,4.843,9.684,9.684,0,0,1,4.095,8.071A10.529,10.529,0,0,1,28.8-31.331q-4.055,3.15-11.851,3.15a30.22,30.22,0,0,1-6.5-.945A17.464,17.464,0,0,1,3.72-32.119l3.071-7.4a32.784,32.784,0,0,0,5.315,1.929,18.644,18.644,0,0,0,4.685.669,9.514,9.514,0,0,0,4.331-.787,2.331,2.331,0,0,0,1.5-2.047,3.665,3.665,0,0,0-1.5-2.835A14.1,14.1,0,0,0,16.4-44.875a33.512,33.512,0,0,1-8.623-4.292,8.7,8.7,0,0,1-4.055-7.52,10.214,10.214,0,0,1,4.016-8.544q4.016-3.11,10.867-3.11a25.719,25.719,0,0,1,6.3,1.024,22.125,22.125,0,0,1,6.772,2.992ZM70.5-32.906a19.352,19.352,0,0,1-6.378,3.9,19.264,19.264,0,0,1-6.851,1.457q-7.8,0-11.064-4.607A18.757,18.757,0,0,1,42.935-43.3V-67.317H53.25v23.545a8.04,8.04,0,0,0,1.732,5.551,6.423,6.423,0,0,0,5.04,1.929,10.6,10.6,0,0,0,4.331-1.024,24.616,24.616,0,0,0,4.173-2.362V-67.317H78.764v38.191H73.409ZM114.2-57a36.108,36.108,0,0,0-5.118-1.929,18.411,18.411,0,0,0-5.04-.669,5.225,5.225,0,0,0-3.032.748,2.408,2.408,0,0,0-1.063,2.087q0,.945,1.3,1.811a20.115,20.115,0,0,0,4.213,1.89,33.317,33.317,0,0,1,8.9,4.843,9.684,9.684,0,0,1,4.095,8.071,10.529,10.529,0,0,1-4.055,8.819q-4.055,3.15-11.851,3.15a30.22,30.22,0,0,1-6.5-.945,17.464,17.464,0,0,1-6.733-2.992l3.071-7.4A32.785,32.785,0,0,0,97.7-37.591a18.643,18.643,0,0,0,4.685.669,9.514,9.514,0,0,0,4.331-.787,2.331,2.331,0,0,0,1.5-2.047,3.665,3.665,0,0,0-1.5-2.835,14.1,14.1,0,0,0-4.725-2.284,33.512,33.512,0,0,1-8.623-4.292,8.7,8.7,0,0,1-4.055-7.52,10.214,10.214,0,0,1,4.016-8.544q4.016-3.11,10.867-3.11a25.719,25.719,0,0,1,6.3,1.024,22.125,22.125,0,0,1,6.772,2.992Zm38.349,27.088a10.13,10.13,0,0,1-3.583,1.693,15.14,15.14,0,0,1-4.134.669q-7.087,0-11.142-3.583t-4.055-10.2V-59.364h-5.118v-7.874h5.118v-9.056l10.158-1.811v10.867h6.93l3.15,7.874H139.791v16.221a8.1,8.1,0,0,0,1.417,4.922,4.851,4.851,0,0,0,4.173,1.929,9.078,9.078,0,0,0,2.047-.236,9.608,9.608,0,0,0,2.126-.787Zm85.2-33.309a18.323,18.323,0,0,1,6.5-4.095,19.744,19.744,0,0,1,6.969-1.5q7.8,0,11.064,4.567a18.714,18.714,0,0,1,3.268,11.182v23.938H255.309V-52.592a8.04,8.04,0,0,0-1.732-5.551,6.423,6.423,0,0,0-5.04-1.929,10.723,10.723,0,0,0-4.607,1.142,24.773,24.773,0,0,0-4.37,2.638v27.167H229.323V-67.317h5.355Zm48.034,22.678a4.015,4.015,0,0,0,1.339,2.953,4.871,4.871,0,0,0,3.543,1.3,10.666,10.666,0,0,0,4.292-.945,14.2,14.2,0,0,0,4.134-2.835V-45.9h-7.717a5.218,5.218,0,0,0-4.134,1.654A5.459,5.459,0,0,0,285.783-40.544Zm5.04,12.363q-7.008,0-10.394-3.425a12.165,12.165,0,0,1-3.386-8.938q0-5.906,4.016-9.056t10.473-3.15h7.481a6.379,6.379,0,0,0-1.693-4.528,6.012,6.012,0,0,0-4.449-1.614,25.338,25.338,0,0,0-5.827.748,26.284,26.284,0,0,0-5.276,1.772l-2.756-8.5a19.833,19.833,0,0,1,6.733-2.48,35.474,35.474,0,0,1,6.969-.984,17.989,17.989,0,0,1,11.733,3.977,12.489,12.489,0,0,1,4.882,10.119v25.12h-5.276l-2.52-3.229a23.417,23.417,0,0,1-5,2.914A14.131,14.131,0,0,1,290.823-28.181ZM332.636-84.72v18.584a22.313,22.313,0,0,1,4.843-1.969,17.448,17.448,0,0,1,4.607-.709q8.426,0,12.914,5.827T359.488-48.5q0,8.662-4.607,14.489t-12.8,5.827a19.123,19.123,0,0,1-5.985-1.1,20.355,20.355,0,0,1-5.906-3.071l-2.52,3.229h-5.2V-83.854Zm6.772,47.8q5.276,0,7.4-3.819a15.784,15.784,0,0,0,2.126-7.756,16.8,16.8,0,0,0-1.89-8.032q-1.89-3.544-7.638-3.544a10.811,10.811,0,0,0-3.425.591,14.573,14.573,0,0,0-3.347,1.614v18.741a18.592,18.592,0,0,0,3.347,1.575A10.2,10.2,0,0,0,339.408-36.922Zm36.537-47.326a5.693,5.693,0,0,1,4.134,1.654,5.5,5.5,0,0,1,1.693,4.095A5.5,5.5,0,0,1,380.08-74.4a5.693,5.693,0,0,1-4.134,1.654A5.468,5.468,0,0,1,371.93-74.4a5.561,5.561,0,0,1-1.654-4.095,5.561,5.561,0,0,1,1.654-4.095A5.468,5.468,0,0,1,375.946-84.248Zm5.118,16.93v38.191H370.827V-67.317Zm23.781-17.4v55.594H394.687V-83.854Zm18.505.472a5.693,5.693,0,0,1,4.134,1.654,5.5,5.5,0,0,1,1.693,4.095,5.5,5.5,0,0,1-1.693,4.095,5.693,5.693,0,0,1-4.134,1.654,5.468,5.468,0,0,1-4.016-1.654A5.561,5.561,0,0,1,417.68-78.5a5.561,5.561,0,0,1,1.654-4.095A5.468,5.468,0,0,1,423.35-84.248Zm5.118,16.93v38.191H418.232V-67.317Zm36.695,37.4a10.129,10.129,0,0,1-3.583,1.693,15.14,15.14,0,0,1-4.134.669q-7.087,0-11.142-3.583t-4.055-10.2V-59.364H437.13v-7.874h5.118v-9.056l10.158-1.811v10.867h6.93l3.15,7.874H452.407v16.221a8.1,8.1,0,0,0,1.417,4.922A4.851,4.851,0,0,0,458-36.292a9.079,9.079,0,0,0,2.047-.236,9.608,9.608,0,0,0,2.126-.787Zm16.221,2.6L483.2-31.8,469.573-65.9l10.552-1.417,8.819,23.151,8.347-23.151h10.788l-15.04,38.191-2.047,5.04a17.75,17.75,0,0,1-6.378,7.953,26.694,26.694,0,0,1-9.607,4.488l-3.622-8.426q2.756-1.181,5.866-2.874A8.5,8.5,0,0,0,481.385-27.315Z" transform="translate(-3.72 84.72)"/><path d="M10.985,40.9A10.932,10.932,0,0,1,6.238,38.89a11.579,11.579,0,0,1-3.153-3.658A14.377,14.377,0,0,1,1.515,30.3a13.132,13.132,0,0,1,.278-5.442A10.317,10.317,0,0,1,4.32,20.5a14.285,14.285,0,0,1,4.352-3.054,20.7,20.7,0,0,1,5.772-1.621l7.069-.993a5.923,5.923,0,0,0-2.12-3.709,5.722,5.722,0,0,0-4.387-.917,25.156,25.156,0,0,0-5.593,1.533A26.071,26.071,0,0,0,4.5,14.192l-.312.208L0,5.8l.182-.165A20.235,20.235,0,0,1,6.611,2.179,35.969,35.969,0,0,1,13.443.218a20.105,20.105,0,0,1,6.542.1A17.575,17.575,0,0,1,25.83,2.567,13.648,13.648,0,0,1,30.188,6.63a13.1,13.1,0,0,1,2.04,5.513l3.542,25.2-5.708.8-2.827-2.732a24.163,24.163,0,0,1-4.379,3.4,14.523,14.523,0,0,1-5.6,2.088,23.96,23.96,0,0,1-3.323.246A16.582,16.582,0,0,1,10.985,40.9Zm4.347-17.621A4.928,4.928,0,0,0,11.7,25.346a5.166,5.166,0,0,0-.876,3.642,3.67,3.67,0,0,0,1.605,2.519,4.577,4.577,0,0,0,3.451.734,10.4,10.4,0,0,0,3.992-1.488,13.85,13.85,0,0,0,3.527-3.2l-.746-5.306Z" transform="translate(158.224 35.342)"/><path d="M5.9,0a5.93,5.93,0,0,1,4.306,1.723,5.724,5.724,0,0,1,1.764,4.265,5.724,5.724,0,0,1-1.764,4.265A5.93,5.93,0,0,1,5.9,11.975a5.7,5.7,0,0,1-4.183-1.723A5.793,5.793,0,0,1,0,5.987,5.793,5.793,0,0,1,1.721,1.721,5.7,5.7,0,0,1,5.9,0Zm5.332,17.636V57.417H.573V17.634Z" transform="translate(198.217 14.063) rotate(-5)"/></g></g></svg>