<svg xmlns="http://www.w3.org/2000/svg" width="692.786" height="142.984" viewBox="0 0 692.786 142.984">
  <g id="Title" transform="translate(-167.391 -691.28)">
    <g id="Slogan" transform="translate(167.391 809.877)">
      <path id="Path_44" data-name="Path 44" d="M-341.171-8.4V0h-4.439V-23.859h7.772a13.616,13.616,0,0,1,4.141.561,7.971,7.971,0,0,1,2.888,1.567,6.139,6.139,0,0,1,1.683,2.409,8.41,8.41,0,0,1,.544,3.069,8.478,8.478,0,0,1-.578,3.176,6.591,6.591,0,0,1-1.732,2.483,8.063,8.063,0,0,1-2.888,1.617,12.857,12.857,0,0,1-4.059.578Zm0-3.465h3.333a6.687,6.687,0,0,0,2.128-.305,3.954,3.954,0,0,0,1.5-.875,3.585,3.585,0,0,0,.891-1.386,5.305,5.305,0,0,0,.3-1.823,4.811,4.811,0,0,0-.3-1.733,3.425,3.425,0,0,0-.891-1.32,3.964,3.964,0,0,0-1.5-.833,7.041,7.041,0,0,0-2.128-.289h-3.333Zm37.686-12v3.531h-10.577v6.616h8.333V-10.3h-8.333v6.749h10.577V0h-15.048V-23.859Zm15.031,14.536V0h-4.439V-23.859h7.277a15.2,15.2,0,0,1,4.183.5,7.97,7.97,0,0,1,2.854,1.411,5.446,5.446,0,0,1,1.634,2.17,7.234,7.234,0,0,1,.52,2.78,7.2,7.2,0,0,1-.355,2.277,6.589,6.589,0,0,1-1.023,1.947,6.9,6.9,0,0,1-1.65,1.535,8.649,8.649,0,0,1-2.236,1.056,4.4,4.4,0,0,1,1.452,1.37L-274.263,0h-3.993a1.95,1.95,0,0,1-.982-.231,2.007,2.007,0,0,1-.685-.66l-5.016-7.64a1.76,1.76,0,0,0-.619-.611,2.168,2.168,0,0,0-1-.181Zm0-3.184h2.772a6.87,6.87,0,0,0,2.186-.314,4.226,4.226,0,0,0,1.534-.866,3.479,3.479,0,0,0,.9-1.312,4.535,4.535,0,0,0,.3-1.666,3.388,3.388,0,0,0-1.2-2.789,5.722,5.722,0,0,0-3.655-.973h-2.838Zm36.415-7.012a1.224,1.224,0,0,1-.421.511,1.058,1.058,0,0,1-.569.148,1.447,1.447,0,0,1-.742-.256q-.413-.256-.974-.569a7.949,7.949,0,0,0-1.312-.569,5.513,5.513,0,0,0-1.774-.256,5.214,5.214,0,0,0-1.609.223,3.406,3.406,0,0,0-1.155.619,2.472,2.472,0,0,0-.7.949,3.114,3.114,0,0,0-.231,1.213,2.109,2.109,0,0,0,.47,1.4,3.927,3.927,0,0,0,1.246.957,11.561,11.561,0,0,0,1.766.709q.99.313,2.021.668a19.466,19.466,0,0,1,2.021.825,7.005,7.005,0,0,1,1.766,1.188A5.384,5.384,0,0,1-250.99-10a6.1,6.1,0,0,1,.47,2.525,8.225,8.225,0,0,1-.553,3.028,6.985,6.985,0,0,1-1.617,2.458,7.616,7.616,0,0,1-2.6,1.65,9.568,9.568,0,0,1-3.515.6,11.332,11.332,0,0,1-2.244-.223,11.812,11.812,0,0,1-2.12-.635,11.071,11.071,0,0,1-1.9-.99,9.337,9.337,0,0,1-1.576-1.287L-265.353-5a1.642,1.642,0,0,1,.437-.388,1.068,1.068,0,0,1,.569-.157,1.574,1.574,0,0,1,.891.338q.479.338,1.13.751a8.672,8.672,0,0,0,1.534.751,5.932,5.932,0,0,0,2.12.338,4.352,4.352,0,0,0,2.937-.9,3.229,3.229,0,0,0,1.039-2.582,2.4,2.4,0,0,0-.47-1.535,3.8,3.8,0,0,0-1.246-1,9.3,9.3,0,0,0-1.766-.685q-.99-.28-2.013-.61a17.358,17.358,0,0,1-2.013-.792,6.521,6.521,0,0,1-1.766-1.2,5.481,5.481,0,0,1-1.246-1.856,7.074,7.074,0,0,1-.47-2.747,6.5,6.5,0,0,1,.52-2.541,6.506,6.506,0,0,1,1.518-2.194,7.493,7.493,0,0,1,2.45-1.535,8.92,8.92,0,0,1,3.316-.577,11.13,11.13,0,0,1,3.894.66,8.791,8.791,0,0,1,3.036,1.848Zm16.1,11.121V0h-4.439V-23.859h7.771a13.617,13.617,0,0,1,4.142.561,7.971,7.971,0,0,1,2.887,1.567,6.139,6.139,0,0,1,1.683,2.409,8.41,8.41,0,0,1,.544,3.069,8.478,8.478,0,0,1-.577,3.176,6.591,6.591,0,0,1-1.732,2.483,8.063,8.063,0,0,1-2.887,1.617A12.857,12.857,0,0,1-232.6-8.4Zm0-3.465h3.333a6.687,6.687,0,0,0,2.129-.305,3.954,3.954,0,0,0,1.5-.875,3.586,3.586,0,0,0,.891-1.386,5.305,5.305,0,0,0,.3-1.823,4.811,4.811,0,0,0-.3-1.733,3.425,3.425,0,0,0-.891-1.32,3.964,3.964,0,0,0-1.5-.833,7.041,7.041,0,0,0-2.129-.289h-3.333Zm37.686-12v3.531h-10.577v6.616h8.333V-10.3h-8.333v6.749h10.577V0H-213.3V-23.859ZM-171.4-5.626a.833.833,0,0,1,.627.28l1.749,1.9A9.606,9.606,0,0,1-172.6-.693a12.31,12.31,0,0,1-5.09.957,12.028,12.028,0,0,1-4.777-.908,10.528,10.528,0,0,1-3.622-2.524,11.052,11.052,0,0,1-2.3-3.861,14.493,14.493,0,0,1-.8-4.9,13.19,13.19,0,0,1,.891-4.925,11.286,11.286,0,0,1,2.508-3.853,11.351,11.351,0,0,1,3.869-2.516,13.3,13.3,0,0,1,4.975-.9,11.746,11.746,0,0,1,4.645.85,10.855,10.855,0,0,1,3.407,2.252l-1.485,2.063a1.347,1.347,0,0,1-.338.347.959.959,0,0,1-.569.149,1.3,1.3,0,0,1-.776-.3,9.6,9.6,0,0,0-1.007-.643,8.2,8.2,0,0,0-1.543-.644,7.939,7.939,0,0,0-2.368-.3,7.99,7.99,0,0,0-3.094.586,6.876,6.876,0,0,0-2.426,1.675,7.706,7.706,0,0,0-1.584,2.648,10.171,10.171,0,0,0-.569,3.506,10.452,10.452,0,0,0,.569,3.58,7.872,7.872,0,0,0,1.543,2.64,6.588,6.588,0,0,0,2.294,1.642,7.089,7.089,0,0,0,2.838.569,12.363,12.363,0,0,0,1.642-.1,6.97,6.97,0,0,0,1.353-.314,6.007,6.007,0,0,0,1.171-.553,7.32,7.32,0,0,0,1.1-.833,1.564,1.564,0,0,1,.346-.239A.873.873,0,0,1-171.4-5.626Zm29.139-18.232v3.646h-7.178V0h-4.438V-20.212h-7.211v-3.646ZM-127.842,0H-132.3V-23.859h4.455Zm9.62-23.859h3.58a1.5,1.5,0,0,1,.94.28,1.717,1.717,0,0,1,.545.726l5.61,14.553q.281.71.536,1.559t.487,1.79a20.478,20.478,0,0,1,.941-3.35l5.593-14.553a1.72,1.72,0,0,1,.528-.693,1.428,1.428,0,0,1,.94-.313h3.581L-104.577,0h-4.01Zm47.421,0v3.531H-81.378v6.616h8.332V-10.3h-8.332v6.749H-70.8V0H-85.85V-23.859Zm23.232,4.34a1.224,1.224,0,0,1-.421.511,1.058,1.058,0,0,1-.569.148,1.447,1.447,0,0,1-.743-.256q-.413-.256-.973-.569a7.949,7.949,0,0,0-1.312-.569,5.513,5.513,0,0,0-1.774-.256,5.214,5.214,0,0,0-1.609.223,3.406,3.406,0,0,0-1.155.619,2.473,2.473,0,0,0-.7.949,3.114,3.114,0,0,0-.231,1.213,2.109,2.109,0,0,0,.47,1.4,3.927,3.927,0,0,0,1.246.957,11.561,11.561,0,0,0,1.765.709q.99.313,2.021.668a19.465,19.465,0,0,1,2.021.825,7,7,0,0,1,1.765,1.188A5.384,5.384,0,0,1-46.522-10a6.1,6.1,0,0,1,.47,2.525A8.225,8.225,0,0,1-46.6-4.447a6.985,6.985,0,0,1-1.617,2.458,7.616,7.616,0,0,1-2.6,1.65,9.567,9.567,0,0,1-3.514.6A11.332,11.332,0,0,1-56.578.041,11.812,11.812,0,0,1-58.7-.594a11.071,11.071,0,0,1-1.9-.99,9.337,9.337,0,0,1-1.576-1.287L-60.885-5a1.642,1.642,0,0,1,.437-.388,1.068,1.068,0,0,1,.569-.157,1.574,1.574,0,0,1,.891.338q.479.338,1.13.751a8.673,8.673,0,0,0,1.535.751,5.932,5.932,0,0,0,2.12.338,4.352,4.352,0,0,0,2.937-.9,3.229,3.229,0,0,0,1.04-2.582,2.4,2.4,0,0,0-.47-1.535,3.8,3.8,0,0,0-1.246-1,9.3,9.3,0,0,0-1.765-.685q-.99-.28-2.013-.61a17.358,17.358,0,0,1-2.013-.792,6.521,6.521,0,0,1-1.766-1.2,5.481,5.481,0,0,1-1.246-1.856,7.074,7.074,0,0,1-.47-2.747,6.5,6.5,0,0,1,.52-2.541,6.505,6.505,0,0,1,1.518-2.194,7.493,7.493,0,0,1,2.45-1.535,8.92,8.92,0,0,1,3.316-.577,11.13,11.13,0,0,1,3.894.66,8.791,8.791,0,0,1,3.036,1.848ZM-2.112,0H-5.544a1.5,1.5,0,0,1-.949-.289,1.642,1.642,0,0,1-.536-.718L-8.811-5.874h-9.884l-1.782,4.868A1.562,1.562,0,0,1-21-.313,1.461,1.461,0,0,1-21.945,0h-3.448l9.372-23.859h4.537ZM-17.556-9.009h7.606l-2.9-7.936q-.2-.528-.437-1.246t-.47-1.559q-.231.841-.454,1.567t-.437,1.271ZM9.273-23.859a4.1,4.1,0,0,1,.495.025,1.16,1.16,0,0,1,.355.1,1.19,1.19,0,0,1,.305.215,3.439,3.439,0,0,1,.33.371L23.282-7.194q-.066-.577-.091-1.13t-.025-1.031v-14.5h3.911V0H24.783a2.033,2.033,0,0,1-.875-.165,1.947,1.947,0,0,1-.677-.594L10.758-16.648q.049.528.074,1.048t.025.949V0H6.947V-23.859ZM59.68-11.929a12.9,12.9,0,0,1-.875,4.818,11.067,11.067,0,0,1-2.458,3.778A11,11,0,0,1,52.536-.874,13.393,13.393,0,0,1,47.6,0H38.494V-23.859H47.6a13.282,13.282,0,0,1,4.934.883,11.159,11.159,0,0,1,3.812,2.459,10.98,10.98,0,0,1,2.458,3.77A12.9,12.9,0,0,1,59.68-11.929Zm-4.538,0a10.95,10.95,0,0,0-.528-3.523,7.464,7.464,0,0,0-1.5-2.64,6.474,6.474,0,0,0-2.368-1.658,8.146,8.146,0,0,0-3.143-.577H42.966v16.8H47.6a8.146,8.146,0,0,0,3.143-.577,6.474,6.474,0,0,0,2.368-1.658,7.464,7.464,0,0,0,1.5-2.64A10.95,10.95,0,0,0,55.143-11.929ZM87.318-8.4V0H82.879V-23.859h7.771a13.616,13.616,0,0,1,4.141.561,7.971,7.971,0,0,1,2.888,1.567,6.139,6.139,0,0,1,1.683,2.409,8.41,8.41,0,0,1,.545,3.069,8.478,8.478,0,0,1-.578,3.176A6.591,6.591,0,0,1,97.6-10.593,8.063,8.063,0,0,1,94.71-8.976a12.857,12.857,0,0,1-4.059.578Zm0-3.465h3.333a6.687,6.687,0,0,0,2.128-.305,3.954,3.954,0,0,0,1.5-.875,3.585,3.585,0,0,0,.891-1.386,5.3,5.3,0,0,0,.3-1.823,4.811,4.811,0,0,0-.3-1.733,3.425,3.425,0,0,0-.891-1.32,3.964,3.964,0,0,0-1.5-.833,7.041,7.041,0,0,0-2.128-.289H87.318Zm27.225,2.541V0H110.1V-23.859h7.276a15.2,15.2,0,0,1,4.183.5,7.97,7.97,0,0,1,2.854,1.411,5.446,5.446,0,0,1,1.633,2.17,7.234,7.234,0,0,1,.52,2.78,7.2,7.2,0,0,1-.355,2.277,6.59,6.59,0,0,1-1.023,1.947,6.9,6.9,0,0,1-1.65,1.535,8.649,8.649,0,0,1-2.236,1.056,4.4,4.4,0,0,1,1.452,1.37L128.733,0H124.74a1.95,1.95,0,0,1-.982-.231,2.007,2.007,0,0,1-.685-.66l-5.016-7.64a1.76,1.76,0,0,0-.619-.611,2.168,2.168,0,0,0-1-.181Zm0-3.184h2.772a6.87,6.87,0,0,0,2.186-.314,4.226,4.226,0,0,0,1.534-.866,3.479,3.479,0,0,0,.9-1.312,4.535,4.535,0,0,0,.3-1.666,3.388,3.388,0,0,0-1.2-2.789,5.722,5.722,0,0,0-3.655-.973h-2.838Zm45.721.578a13.225,13.225,0,0,1-.874,4.859A11.512,11.512,0,0,1,156.932-3.2,11.133,11.133,0,0,1,153.12-.652a12.858,12.858,0,0,1-4.933.916,12.92,12.92,0,0,1-4.942-.916A11.2,11.2,0,0,1,139.417-3.2,11.447,11.447,0,0,1,136.95-7.07a13.225,13.225,0,0,1-.874-4.859,13.225,13.225,0,0,1,.874-4.859,11.447,11.447,0,0,1,2.467-3.869,11.2,11.2,0,0,1,3.828-2.549,12.92,12.92,0,0,1,4.942-.916,12.757,12.757,0,0,1,4.933.924,11.291,11.291,0,0,1,3.812,2.549,11.422,11.422,0,0,1,2.458,3.861A13.225,13.225,0,0,1,160.264-11.929Zm-4.554,0a11.11,11.11,0,0,0-.52-3.523A7.451,7.451,0,0,0,153.7-18.1a6.429,6.429,0,0,0-2.368-1.666,8.146,8.146,0,0,0-3.143-.578,8.209,8.209,0,0,0-3.152.578,6.49,6.49,0,0,0-2.384,1.666,7.481,7.481,0,0,0-1.51,2.648,10.95,10.95,0,0,0-.528,3.523,10.95,10.95,0,0,0,.528,3.523,7.4,7.4,0,0,0,1.51,2.64,6.535,6.535,0,0,0,2.384,1.658,8.209,8.209,0,0,0,3.152.577,8.147,8.147,0,0,0,3.143-.577A6.474,6.474,0,0,0,153.7-5.767a7.367,7.367,0,0,0,1.493-2.64A11.11,11.11,0,0,0,155.71-11.929Zm30.179-11.929v3.646h-7.178V0h-4.438V-20.212h-7.211v-3.646Zm31.02,11.929a13.225,13.225,0,0,1-.874,4.859A11.512,11.512,0,0,1,213.576-3.2a11.133,11.133,0,0,1-3.812,2.549,12.858,12.858,0,0,1-4.933.916,12.92,12.92,0,0,1-4.942-.916A11.2,11.2,0,0,1,196.061-3.2a11.447,11.447,0,0,1-2.467-3.869,13.225,13.225,0,0,1-.874-4.859,13.225,13.225,0,0,1,.874-4.859,11.447,11.447,0,0,1,2.467-3.869,11.2,11.2,0,0,1,3.828-2.549,12.92,12.92,0,0,1,4.942-.916,12.757,12.757,0,0,1,4.933.924,11.291,11.291,0,0,1,3.812,2.549,11.422,11.422,0,0,1,2.458,3.861A13.225,13.225,0,0,1,216.909-11.929Zm-4.554,0a11.11,11.11,0,0,0-.52-3.523,7.451,7.451,0,0,0-1.493-2.648,6.429,6.429,0,0,0-2.368-1.666,8.146,8.146,0,0,0-3.143-.578,8.209,8.209,0,0,0-3.152.578A6.49,6.49,0,0,0,199.3-18.1a7.481,7.481,0,0,0-1.51,2.648,10.95,10.95,0,0,0-.528,3.523,10.95,10.95,0,0,0,.528,3.523,7.4,7.4,0,0,0,1.51,2.64,6.535,6.535,0,0,0,2.384,1.658,8.209,8.209,0,0,0,3.152.577,8.147,8.147,0,0,0,3.143-.577,6.474,6.474,0,0,0,2.368-1.658,7.367,7.367,0,0,0,1.493-2.64A11.11,11.11,0,0,0,212.355-11.929Zm30.178-11.929v3.646h-7.178V0h-4.438V-20.212h-7.211v-3.646ZM262.565-9.273V0h-4.439V-9.273l-8.7-14.586h3.91a1.391,1.391,0,0,1,.916.28,2.364,2.364,0,0,1,.569.709L259.2-14.9q.38.709.66,1.345t.512,1.246q.215-.627.487-1.262t.652-1.328l4.34-7.97a2.2,2.2,0,0,1,.544-.677,1.363,1.363,0,0,1,.924-.313h3.927Zm22.176.874V0H280.3V-23.859h7.772a13.616,13.616,0,0,1,4.141.561,7.971,7.971,0,0,1,2.888,1.567,6.139,6.139,0,0,1,1.683,2.409,8.41,8.41,0,0,1,.544,3.069,8.478,8.478,0,0,1-.578,3.176,6.591,6.591,0,0,1-1.732,2.483,8.063,8.063,0,0,1-2.888,1.617,12.857,12.857,0,0,1-4.059.578Zm0-3.465h3.333a6.687,6.687,0,0,0,2.128-.305,3.954,3.954,0,0,0,1.5-.875,3.585,3.585,0,0,0,.891-1.386,5.305,5.305,0,0,0,.3-1.823,4.811,4.811,0,0,0-.3-1.733,3.425,3.425,0,0,0-.891-1.32,3.964,3.964,0,0,0-1.5-.833,7.041,7.041,0,0,0-2.128-.289h-3.333Zm37.686-12v3.531H311.85v6.616h8.333V-10.3H311.85v6.749h10.577V0H307.378V-23.859Zm23.232,4.34a1.224,1.224,0,0,1-.421.511,1.058,1.058,0,0,1-.569.148,1.447,1.447,0,0,1-.743-.256q-.412-.256-.973-.569a7.948,7.948,0,0,0-1.312-.569,5.513,5.513,0,0,0-1.774-.256,5.214,5.214,0,0,0-1.609.223,3.406,3.406,0,0,0-1.155.619,2.472,2.472,0,0,0-.7.949,3.114,3.114,0,0,0-.231,1.213,2.109,2.109,0,0,0,.47,1.4,3.927,3.927,0,0,0,1.246.957,11.561,11.561,0,0,0,1.766.709q.99.313,2.021.668a19.465,19.465,0,0,1,2.021.825,7,7,0,0,1,1.766,1.188A5.384,5.384,0,0,1,346.706-10a6.1,6.1,0,0,1,.47,2.525,8.225,8.225,0,0,1-.553,3.028,6.985,6.985,0,0,1-1.617,2.458,7.616,7.616,0,0,1-2.6,1.65,9.567,9.567,0,0,1-3.514.6,11.332,11.332,0,0,1-2.244-.223,11.812,11.812,0,0,1-2.12-.635,11.071,11.071,0,0,1-1.9-.99,9.337,9.337,0,0,1-1.576-1.287L332.343-5a1.642,1.642,0,0,1,.437-.388,1.068,1.068,0,0,1,.569-.157,1.574,1.574,0,0,1,.891.338q.479.338,1.13.751a8.672,8.672,0,0,0,1.534.751,5.932,5.932,0,0,0,2.12.338,4.352,4.352,0,0,0,2.937-.9A3.229,3.229,0,0,0,343-6.847a2.4,2.4,0,0,0-.47-1.535,3.8,3.8,0,0,0-1.246-1,9.3,9.3,0,0,0-1.766-.685q-.99-.28-2.013-.61a17.358,17.358,0,0,1-2.013-.792,6.521,6.521,0,0,1-1.766-1.2,5.481,5.481,0,0,1-1.246-1.856,7.074,7.074,0,0,1-.47-2.747,6.5,6.5,0,0,1,.52-2.541,6.506,6.506,0,0,1,1.518-2.194,7.493,7.493,0,0,1,2.45-1.535,8.92,8.92,0,0,1,3.316-.577,11.13,11.13,0,0,1,3.894.66,8.791,8.791,0,0,1,3.036,1.848Z" transform="translate(345.609 24.123)"/>
    </g>
    <g id="Wortmarke" transform="translate(261.794 691.28)">
      <path id="Path_1" data-name="Path 1" d="M28.6-57a36.108,36.108,0,0,0-5.118-1.929,18.411,18.411,0,0,0-5.04-.669,5.225,5.225,0,0,0-3.032.748,2.408,2.408,0,0,0-1.063,2.087q0,.945,1.3,1.811a20.115,20.115,0,0,0,4.213,1.89,33.317,33.317,0,0,1,8.9,4.843,9.684,9.684,0,0,1,4.095,8.071A10.529,10.529,0,0,1,28.8-31.331q-4.055,3.15-11.851,3.15a30.22,30.22,0,0,1-6.5-.945A17.464,17.464,0,0,1,3.72-32.119l3.071-7.4a32.784,32.784,0,0,0,5.315,1.929,18.644,18.644,0,0,0,4.685.669,9.514,9.514,0,0,0,4.331-.787,2.331,2.331,0,0,0,1.5-2.047,3.665,3.665,0,0,0-1.5-2.835A14.1,14.1,0,0,0,16.4-44.875a33.512,33.512,0,0,1-8.623-4.292,8.7,8.7,0,0,1-4.055-7.52,10.214,10.214,0,0,1,4.016-8.544q4.016-3.11,10.867-3.11a25.719,25.719,0,0,1,6.3,1.024,22.125,22.125,0,0,1,6.772,2.992ZM70.5-32.906a19.352,19.352,0,0,1-6.378,3.9,19.264,19.264,0,0,1-6.851,1.457q-7.8,0-11.064-4.607A18.757,18.757,0,0,1,42.935-43.3V-67.317H53.25v23.545a8.04,8.04,0,0,0,1.732,5.551,6.423,6.423,0,0,0,5.04,1.929,10.6,10.6,0,0,0,4.331-1.024,24.616,24.616,0,0,0,4.173-2.362V-67.317H78.764v38.191H73.409ZM114.2-57a36.108,36.108,0,0,0-5.118-1.929,18.411,18.411,0,0,0-5.04-.669,5.225,5.225,0,0,0-3.032.748,2.408,2.408,0,0,0-1.063,2.087q0,.945,1.3,1.811a20.115,20.115,0,0,0,4.213,1.89,33.317,33.317,0,0,1,8.9,4.843,9.684,9.684,0,0,1,4.095,8.071,10.529,10.529,0,0,1-4.055,8.819q-4.055,3.15-11.851,3.15a30.22,30.22,0,0,1-6.5-.945,17.464,17.464,0,0,1-6.733-2.992l3.071-7.4A32.785,32.785,0,0,0,97.7-37.591a18.643,18.643,0,0,0,4.685.669,9.514,9.514,0,0,0,4.331-.787,2.331,2.331,0,0,0,1.5-2.047,3.665,3.665,0,0,0-1.5-2.835,14.1,14.1,0,0,0-4.725-2.284,33.512,33.512,0,0,1-8.623-4.292,8.7,8.7,0,0,1-4.055-7.52,10.214,10.214,0,0,1,4.016-8.544q4.016-3.11,10.867-3.11a25.719,25.719,0,0,1,6.3,1.024,22.125,22.125,0,0,1,6.772,2.992Zm38.349,27.088a10.13,10.13,0,0,1-3.583,1.693,15.14,15.14,0,0,1-4.134.669q-7.087,0-11.142-3.583t-4.055-10.2V-59.364h-5.118v-7.874h5.118v-9.056l10.158-1.811v10.867h6.93l3.15,7.874H139.791v16.221a8.1,8.1,0,0,0,1.417,4.922,4.851,4.851,0,0,0,4.173,1.929,9.078,9.078,0,0,0,2.047-.236,9.608,9.608,0,0,0,2.126-.787Zm85.2-33.309a18.323,18.323,0,0,1,6.5-4.095,19.744,19.744,0,0,1,6.969-1.5q7.8,0,11.064,4.567a18.714,18.714,0,0,1,3.268,11.182v23.938H255.309V-52.592a8.04,8.04,0,0,0-1.732-5.551,6.423,6.423,0,0,0-5.04-1.929,10.723,10.723,0,0,0-4.607,1.142,24.773,24.773,0,0,0-4.37,2.638v27.167H229.323V-67.317h5.355Zm48.034,22.678a4.015,4.015,0,0,0,1.339,2.953,4.871,4.871,0,0,0,3.543,1.3,10.666,10.666,0,0,0,4.292-.945,14.2,14.2,0,0,0,4.134-2.835V-45.9h-7.717a5.218,5.218,0,0,0-4.134,1.654A5.459,5.459,0,0,0,285.783-40.544Zm5.04,12.363q-7.008,0-10.394-3.425a12.165,12.165,0,0,1-3.386-8.938q0-5.906,4.016-9.056t10.473-3.15h7.481a6.379,6.379,0,0,0-1.693-4.528,6.012,6.012,0,0,0-4.449-1.614,25.338,25.338,0,0,0-5.827.748,26.284,26.284,0,0,0-5.276,1.772l-2.756-8.5a19.833,19.833,0,0,1,6.733-2.48,35.474,35.474,0,0,1,6.969-.984,17.989,17.989,0,0,1,11.733,3.977,12.489,12.489,0,0,1,4.882,10.119v25.12h-5.276l-2.52-3.229a23.417,23.417,0,0,1-5,2.914A14.131,14.131,0,0,1,290.823-28.181ZM332.636-84.72v18.584a22.313,22.313,0,0,1,4.843-1.969,17.448,17.448,0,0,1,4.607-.709q8.426,0,12.914,5.827T359.488-48.5q0,8.662-4.607,14.489t-12.8,5.827a19.123,19.123,0,0,1-5.985-1.1,20.355,20.355,0,0,1-5.906-3.071l-2.52,3.229h-5.2V-83.854Zm6.772,47.8q5.276,0,7.4-3.819a15.784,15.784,0,0,0,2.126-7.756,16.8,16.8,0,0,0-1.89-8.032q-1.89-3.544-7.638-3.544a10.811,10.811,0,0,0-3.425.591,14.573,14.573,0,0,0-3.347,1.614v18.741a18.592,18.592,0,0,0,3.347,1.575A10.2,10.2,0,0,0,339.408-36.922Zm36.537-47.326a5.693,5.693,0,0,1,4.134,1.654,5.5,5.5,0,0,1,1.693,4.095A5.5,5.5,0,0,1,380.08-74.4a5.693,5.693,0,0,1-4.134,1.654A5.468,5.468,0,0,1,371.93-74.4a5.561,5.561,0,0,1-1.654-4.095,5.561,5.561,0,0,1,1.654-4.095A5.468,5.468,0,0,1,375.946-84.248Zm5.118,16.93v38.191H370.827V-67.317Zm23.781-17.4v55.594H394.687V-83.854Zm18.505.472a5.693,5.693,0,0,1,4.134,1.654,5.5,5.5,0,0,1,1.693,4.095,5.5,5.5,0,0,1-1.693,4.095,5.693,5.693,0,0,1-4.134,1.654,5.468,5.468,0,0,1-4.016-1.654A5.561,5.561,0,0,1,417.68-78.5a5.561,5.561,0,0,1,1.654-4.095A5.468,5.468,0,0,1,423.35-84.248Zm5.118,16.93v38.191H418.232V-67.317Zm36.695,37.4a10.129,10.129,0,0,1-3.583,1.693,15.14,15.14,0,0,1-4.134.669q-7.087,0-11.142-3.583t-4.055-10.2V-59.364H437.13v-7.874h5.118v-9.056l10.158-1.811v10.867h6.93l3.15,7.874H452.407v16.221a8.1,8.1,0,0,0,1.417,4.922A4.851,4.851,0,0,0,458-36.292a9.079,9.079,0,0,0,2.047-.236,9.608,9.608,0,0,0,2.126-.787Zm16.221,2.6L483.2-31.8,469.573-65.9l10.552-1.417,8.819,23.151,8.347-23.151h10.788l-15.04,38.191-2.047,5.04a17.75,17.75,0,0,1-6.378,7.953,26.694,26.694,0,0,1-9.607,4.488l-3.622-8.426q2.756-1.181,5.866-2.874A8.5,8.5,0,0,0,481.385-27.315Z" transform="translate(-3.72 84.72)"/>
      <path id="Union_1" data-name="Union 1" d="M10.985,40.9A10.932,10.932,0,0,1,6.238,38.89a11.579,11.579,0,0,1-3.153-3.658A14.377,14.377,0,0,1,1.515,30.3a13.132,13.132,0,0,1,.278-5.442A10.317,10.317,0,0,1,4.32,20.5a14.285,14.285,0,0,1,4.352-3.054,20.7,20.7,0,0,1,5.772-1.621l7.069-.993a5.923,5.923,0,0,0-2.12-3.709,5.722,5.722,0,0,0-4.387-.917,25.156,25.156,0,0,0-5.593,1.533A26.071,26.071,0,0,0,4.5,14.192l-.312.208L0,5.8l.182-.165A20.235,20.235,0,0,1,6.611,2.179,35.969,35.969,0,0,1,13.443.218a20.105,20.105,0,0,1,6.542.1A17.575,17.575,0,0,1,25.83,2.567,13.648,13.648,0,0,1,30.188,6.63a13.1,13.1,0,0,1,2.04,5.513l3.542,25.2-5.708.8-2.827-2.732a24.163,24.163,0,0,1-4.379,3.4,14.523,14.523,0,0,1-5.6,2.088,23.96,23.96,0,0,1-3.323.246A16.582,16.582,0,0,1,10.985,40.9Zm4.347-17.621A4.928,4.928,0,0,0,11.7,25.346a5.166,5.166,0,0,0-.876,3.642,3.67,3.67,0,0,0,1.605,2.519,4.577,4.577,0,0,0,3.451.734,10.4,10.4,0,0,0,3.992-1.488,13.85,13.85,0,0,0,3.527-3.2l-.746-5.306Z" transform="translate(158.224 35.342)"/>
      <path id="Path_2" data-name="Path 2" d="M5.9,0a5.93,5.93,0,0,1,4.306,1.723,5.724,5.724,0,0,1,1.764,4.265,5.724,5.724,0,0,1-1.764,4.265A5.93,5.93,0,0,1,5.9,11.975a5.7,5.7,0,0,1-4.183-1.723A5.793,5.793,0,0,1,0,5.987,5.793,5.793,0,0,1,1.721,1.721,5.7,5.7,0,0,1,5.9,0Zm5.332,17.636V57.417H.573V17.634Z" transform="translate(198.217 14.063) rotate(-5)"/>
    </g>
  </g>
</svg>
