<svg xmlns="http://www.w3.org/2000/svg" width="272.854" height="41.379" viewBox="0 0 272.854 41.379"><path d="M17.182-69.725a19.534,19.534,0,0,0-2.769-1.044,9.96,9.96,0,0,0-2.726-.362,2.826,2.826,0,0,0-1.64.4A1.3,1.3,0,0,0,9.471-69.6q0,.511.7.98a10.882,10.882,0,0,0,2.279,1.022,18.024,18.024,0,0,1,4.814,2.62,5.239,5.239,0,0,1,2.215,4.367,5.7,5.7,0,0,1-2.194,4.771q-2.194,1.7-6.411,1.7a16.349,16.349,0,0,1-3.515-.511A9.448,9.448,0,0,1,3.72-56.263l1.661-4a17.736,17.736,0,0,0,2.876,1.044,10.086,10.086,0,0,0,2.535.362,5.147,5.147,0,0,0,2.343-.426,1.261,1.261,0,0,0,.809-1.108,1.983,1.983,0,0,0-.809-1.534,7.626,7.626,0,0,0-2.556-1.235,18.13,18.13,0,0,1-4.665-2.322A4.705,4.705,0,0,1,3.72-69.554a5.526,5.526,0,0,1,2.173-4.622,9.362,9.362,0,0,1,5.879-1.683,13.914,13.914,0,0,1,3.408.554,11.969,11.969,0,0,1,3.664,1.619ZM39.845-56.689a10.469,10.469,0,0,1-3.451,2.109,10.421,10.421,0,0,1-3.706.788q-4.217,0-5.985-2.492a10.148,10.148,0,0,1-1.768-6.028V-75.305h5.581v12.737a4.35,4.35,0,0,0,.937,3,3.475,3.475,0,0,0,2.726,1.044,5.736,5.736,0,0,0,2.343-.554,13.317,13.317,0,0,0,2.258-1.278V-75.305h5.538v20.661h-2.9ZM63.488-69.725a19.534,19.534,0,0,0-2.769-1.044,9.96,9.96,0,0,0-2.726-.362,2.827,2.827,0,0,0-1.64.4,1.3,1.3,0,0,0-.575,1.129q0,.511.7.98a10.882,10.882,0,0,0,2.279,1.022,18.024,18.024,0,0,1,4.814,2.62,5.239,5.239,0,0,1,2.215,4.367,5.7,5.7,0,0,1-2.194,4.771q-2.194,1.7-6.411,1.7a16.349,16.349,0,0,1-3.515-.511,9.448,9.448,0,0,1-3.642-1.619l1.661-4a17.736,17.736,0,0,0,2.876,1.044,10.086,10.086,0,0,0,2.535.362,5.147,5.147,0,0,0,2.343-.426A1.261,1.261,0,0,0,60.25-60.4a1.982,1.982,0,0,0-.809-1.534,7.626,7.626,0,0,0-2.556-1.235,18.13,18.13,0,0,1-4.665-2.322,4.705,4.705,0,0,1-2.194-4.068A5.526,5.526,0,0,1,52.2-74.176a9.362,9.362,0,0,1,5.879-1.683,13.914,13.914,0,0,1,3.408.554,11.969,11.969,0,0,1,3.664,1.619ZM84.234-55.07a5.48,5.48,0,0,1-1.938.916,8.19,8.19,0,0,1-2.236.362,8.787,8.787,0,0,1-6.028-1.938,6.973,6.973,0,0,1-2.194-5.517V-71H69.069v-4.26h2.769v-4.9l5.5-.98v5.879h3.749l1.7,4.26H77.333v8.776a4.381,4.381,0,0,0,.767,2.663,2.624,2.624,0,0,0,2.258,1.044,4.911,4.911,0,0,0,1.108-.128,5.2,5.2,0,0,0,1.15-.426Zm46.093-18.02a9.912,9.912,0,0,1,3.514-2.215,10.681,10.681,0,0,1,3.77-.809q4.217,0,5.985,2.471a10.124,10.124,0,0,1,1.768,6.049v12.95h-5.538V-67.339a4.35,4.35,0,0,0-.937-3,3.475,3.475,0,0,0-2.726-1.044,5.8,5.8,0,0,0-2.492.618,13.4,13.4,0,0,0-2.364,1.427v14.7h-5.538V-75.305h2.9Zm25.986,12.269a2.172,2.172,0,0,0,.724,1.6,2.635,2.635,0,0,0,1.917.7,5.77,5.77,0,0,0,2.322-.511,7.681,7.681,0,0,0,2.237-1.534v-3.152h-4.175a2.823,2.823,0,0,0-2.237.895A2.953,2.953,0,0,0,156.314-60.821Zm2.726,6.688q-3.791,0-5.623-1.853a6.581,6.581,0,0,1-1.832-4.835,5.857,5.857,0,0,1,2.173-4.9,8.915,8.915,0,0,1,5.666-1.7h4.047a3.451,3.451,0,0,0-.916-2.45,3.253,3.253,0,0,0-2.407-.873,13.708,13.708,0,0,0-3.152.4,14.22,14.22,0,0,0-2.854.959l-1.491-4.6a10.729,10.729,0,0,1,3.642-1.342,19.191,19.191,0,0,1,3.77-.533,9.732,9.732,0,0,1,6.347,2.151,6.757,6.757,0,0,1,2.641,5.474v13.589H166.2l-1.363-1.747a12.669,12.669,0,0,1-2.705,1.576A7.645,7.645,0,0,1,159.04-54.133ZM181.661-84.72v10.054a12.071,12.071,0,0,1,2.62-1.065,9.439,9.439,0,0,1,2.492-.383,8.291,8.291,0,0,1,6.986,3.152,12.463,12.463,0,0,1,2.428,7.838,12.246,12.246,0,0,1-2.492,7.838,8.331,8.331,0,0,1-6.923,3.152,10.345,10.345,0,0,1-3.238-.6,11.012,11.012,0,0,1-3.195-1.661l-1.363,1.747h-2.812V-84.251Zm3.664,25.858a4.193,4.193,0,0,0,4-2.066,8.539,8.539,0,0,0,1.15-4.2,9.089,9.089,0,0,0-1.022-4.345q-1.022-1.917-4.132-1.917a5.848,5.848,0,0,0-1.853.32,7.884,7.884,0,0,0-1.811.873v10.139a10.058,10.058,0,0,0,1.811.852A5.52,5.52,0,0,0,185.324-58.862Zm19.766-25.6a3.08,3.08,0,0,1,2.236.895,2.973,2.973,0,0,1,.916,2.215,2.973,2.973,0,0,1-.916,2.215,3.08,3.08,0,0,1-2.236.895,2.958,2.958,0,0,1-2.173-.895,3.009,3.009,0,0,1-.895-2.215,3.009,3.009,0,0,1,.895-2.215A2.958,2.958,0,0,1,205.091-84.464Zm2.769,9.159v20.661h-5.538V-75.305Zm12.865-9.415v30.076h-5.5V-84.251Zm10.011.256a3.08,3.08,0,0,1,2.236.895,2.973,2.973,0,0,1,.916,2.215,2.973,2.973,0,0,1-.916,2.215,3.08,3.08,0,0,1-2.236.895,2.958,2.958,0,0,1-2.173-.895,3.009,3.009,0,0,1-.895-2.215,3.009,3.009,0,0,1,.895-2.215A2.958,2.958,0,0,1,230.736-84.464Zm2.769,9.159v20.661h-5.538V-75.305ZM253.357-55.07a5.48,5.48,0,0,1-1.938.916,8.191,8.191,0,0,1-2.237.362,8.787,8.787,0,0,1-6.028-1.938,6.973,6.973,0,0,1-2.194-5.517V-71h-2.769v-4.26h2.769v-4.9l5.5-.98v5.879H250.2l1.7,4.26h-5.453v8.776a4.381,4.381,0,0,0,.767,2.663,2.624,2.624,0,0,0,2.258,1.044,4.911,4.911,0,0,0,1.108-.128,5.2,5.2,0,0,0,1.15-.426Zm8.776,1.406.98-2.428-7.37-18.446,5.708-.767,4.771,12.524,4.516-12.524h5.836l-8.137,20.661-1.108,2.726a9.6,9.6,0,0,1-3.451,4.3,14.441,14.441,0,0,1-5.2,2.428l-1.96-4.558q1.491-.639,3.174-1.555A4.6,4.6,0,0,0,262.132-53.665Z" transform="translate(-3.72 84.72)"/><path d="M5.943,22.126a5.914,5.914,0,0,1-2.568-1.087A6.264,6.264,0,0,1,1.669,19.06,7.778,7.778,0,0,1,.82,16.39a7.1,7.1,0,0,1,.15-2.944,5.581,5.581,0,0,1,1.367-2.358A7.728,7.728,0,0,1,4.691,9.436a11.2,11.2,0,0,1,3.122-.877l3.824-.537a3.2,3.2,0,0,0-1.147-2.006,3.1,3.1,0,0,0-2.373-.5,13.609,13.609,0,0,0-3.026.829A14.1,14.1,0,0,0,2.433,7.678l-.169.113L0,3.139.1,3.05A10.947,10.947,0,0,1,3.576,1.179,19.459,19.459,0,0,1,7.272.118a10.877,10.877,0,0,1,3.539.055,9.508,9.508,0,0,1,3.162,1.215,7.383,7.383,0,0,1,2.358,2.2,7.085,7.085,0,0,1,1.1,2.983L19.352,20.2l-3.088.434-1.529-1.478A13.072,13.072,0,0,1,12.365,21a7.857,7.857,0,0,1-3.032,1.13,12.962,12.962,0,0,1-1.8.133A8.971,8.971,0,0,1,5.943,22.126Zm2.352-9.533a2.666,2.666,0,0,0-1.967,1.119,2.8,2.8,0,0,0-.474,1.97,1.985,1.985,0,0,0,.868,1.363,2.476,2.476,0,0,0,1.867.4,5.625,5.625,0,0,0,2.16-.8,7.493,7.493,0,0,0,1.908-1.729l-.4-2.871Z" transform="translate(85.598 19.12)"/><path d="M3.2,0a3.208,3.208,0,0,1,2.33.932,3.1,3.1,0,0,1,.954,2.308,3.1,3.1,0,0,1-.954,2.308,3.208,3.208,0,0,1-2.33.932A3.081,3.081,0,0,1,.932,5.547,3.134,3.134,0,0,1,0,3.239,3.134,3.134,0,0,1,.932.932,3.081,3.081,0,0,1,3.2,0ZM6.079,9.541V31.063H.311V9.541Z" transform="translate(107.233 7.608) rotate(-5)"/></svg>